<?xml version="1.0" standalone="no"?>
<!DOCTYPE svg PUBLIC "-//W3C//DTD SVG 20010904//EN"
 "http://www.w3.org/TR/2001/REC-SVG-20010904/DTD/svg10.dtd">
<svg version="1.0" xmlns="http://www.w3.org/2000/svg"
 width="185.000000pt" height="87.000000pt" viewBox="0 0 185.000000 87.000000"
 preserveAspectRatio="xMidYMid meet">

<g transform="translate(0.000000,87.000000) scale(0.100000,-0.100000)"
fill="#000000" stroke="none">
<path d="M835 789 c-55 -4 -199 -16 -320 -28 -121 -11 -262 -23 -313 -26 -60
-5 -98 -12 -107 -22 -12 -12 -15 -61 -15 -284 0 -176 4 -277 11 -291 10 -19
17 -20 112 -13 167 11 466 35 557 45 143 16 140 17 140 -32 0 -73 -2 -72 172
-60 524 37 615 45 636 53 l22 9 -2 297 -3 298 -80 1 c-44 1 -116 -3 -160 -7
-162 -18 -400 -36 -407 -32 -5 2 -8 19 -8 38 0 60 -6 65 -74 64 -33 -1 -106
-5 -161 -10z m175 -104 c0 -64 -14 -59 145 -45 242 21 499 39 503 36 8 -9 1
-481 -8 -486 -5 -3 -139 -16 -297 -28 -159 -13 -312 -26 -340 -29 l-53 -6 0
56 0 55 -37 -4 c-21 -3 -130 -11 -243 -19 -113 -8 -277 -22 -364 -30 -88 -9
-165 -14 -173 -11 -19 7 -19 494 0 501 14 5 191 19 502 41 121 8 227 16 235
18 8 2 41 4 73 5 l57 1 0 -55z"/>
<path d="M893 570 c3 -55 3 -100 1 -100 -2 0 -8 19 -14 43 -37 141 -39 147
-67 147 l-26 0 6 -72 c4 -40 9 -121 13 -180 6 -94 9 -108 24 -108 12 0 17 6
15 18 -8 40 -13 226 -6 212 4 -8 20 -63 36 -122 24 -92 31 -108 48 -108 19 0
20 4 13 138 -9 191 -15 232 -34 232 -13 0 -14 -15 -9 -100z"/>
<path d="M684 653 c-19 -4 -21 -13 -27 -125 -11 -192 -9 -238 7 -238 9 0 16
12 18 33 2 27 8 33 31 35 22 3 27 0 27 -20 0 -13 4 -29 9 -37 12 -19 40 -7 36
16 -3 10 -16 81 -30 158 -34 185 -34 185 -43 184 -4 -1 -16 -4 -28 -6z m26
-139 c6 -32 13 -69 15 -81 4 -18 1 -23 -15 -23 -19 0 -20 6 -20 87 0 47 2 84
5 81 3 -2 10 -31 15 -64z"/>
<path d="M491 641 c-10 -6 -11 -40 -6 -152 9 -211 8 -209 53 -209 21 0 48 7
60 16 19 13 22 24 22 77 0 40 -6 70 -15 85 -13 17 -14 26 -4 43 15 28 6 106
-15 127 -17 17 -75 25 -95 13z m67 -53 c19 -19 15 -76 -7 -87 -22 -12 -31 2
-31 53 0 45 14 58 38 34z m11 -152 c7 -8 11 -34 9 -58 -2 -35 -7 -43 -23 -43
-17 0 -20 8 -23 58 -2 44 0 57 11 57 8 0 20 -6 26 -14z"/>
<path d="M333 632 c-10 -6 -11 -44 -3 -178 5 -93 10 -172 10 -176 0 -5 10 -8
21 -8 21 0 22 3 15 80 -6 74 -5 80 13 80 22 0 31 -18 31 -68 0 -54 10 -82 29
-82 14 0 15 10 11 73 -3 41 -11 81 -18 90 -10 12 -11 21 -3 36 19 34 13 105
-10 135 -21 26 -69 35 -96 18z m66 -56 c18 -21 10 -90 -10 -94 -13 -2 -18 8
-22 45 -7 63 5 81 32 49z"/>
<path d="M165 620 c-11 -18 16 -314 31 -337 18 -29 64 -30 89 -3 16 18 17 33
12 152 -4 73 -7 148 -7 166 0 26 -4 32 -21 32 -20 0 -20 -3 -14 -132 4 -73 8
-139 10 -145 6 -20 -5 -43 -21 -43 -22 0 -34 44 -34 124 0 114 -11 196 -26
196 -7 0 -16 -4 -19 -10z"/>
<path d="M1427 593 c-4 -4 -4 -78 -1 -165 7 -155 7 -158 -13 -158 -27 0 -33
18 -33 99 0 38 -3 102 -6 144 -6 68 -9 77 -27 77 -19 0 -19 -5 -12 -157 8
-188 17 -213 77 -213 46 0 58 31 57 145 -2 184 -15 255 -42 228z"/>
<path d="M1499 583 c-2 -27 0 -96 7 -230 l6 -123 59 0 c56 0 59 1 59 25 0 23
-4 25 -40 25 l-40 0 0 53 c0 30 -3 102 -7 160 -5 95 -8 107 -25 107 -10 0 -19
-8 -19 -17z"/>
<path d="M1185 570 c-15 -17 -17 -36 -14 -169 4 -130 7 -152 24 -170 26 -29
72 -24 97 10 19 25 19 35 11 167 -7 115 -13 145 -28 162 -23 25 -67 26 -90 0z
m69 -52 c9 -44 14 -236 6 -248 -15 -25 -37 -2 -44 46 -8 61 -8 209 1 217 14
14 33 6 37 -15z"/>
<path d="M1027 562 c-11 -12 -17 -36 -17 -70 0 -43 5 -57 35 -94 47 -57 70
-108 58 -127 -17 -27 -34 -24 -46 8 -7 18 -18 31 -29 31 -14 0 -16 -6 -11 -32
9 -49 21 -67 47 -74 32 -8 65 11 77 44 18 48 2 103 -47 162 -34 42 -44 62 -42
85 4 39 35 47 44 11 8 -32 44 -36 44 -5 0 23 -18 60 -34 71 -20 14 -63 8 -79
-10z"/>
</g>
</svg>
